<svg xmlns="http://www.w3.org/2000/svg" viewBox="0 0 230 221"><defs><style>.cls-1{fill:#fff;}</style></defs><title>Asset 1</title><g id="Layer_2" data-name="Layer 2"><g id="Layer_1-2" data-name="Layer 1"><path class="cls-1" d="M1,0V91c2.09-21.8,12.85-39.13,27.44-54.73-1.83,6.83-4.17,13.45-5.33,20.26-4.59,27,1.31,52.13,16.06,74.8,22.67,34.87,54.69,56,96.38,60.32,28.7,3,55.76-2.22,78.47-21.81,3-2.58,5.65-5.55,8.68-8C205,196.25,176.75,215.4,138.12,220H230a22,22,0,0,1-4.49,1Q112.87,221,0,221v-7.74Q0,108.87,0,4.49A22,22,0,0,1,1,0ZM114.77,219.77c-29.93-2.57-54.79-15.69-76-36.1C17.37,163.09,4.65,138,1.25,108.29V219.77Z"/><path class="cls-1" d="M86,18.48c-4.21,11.62-5.62,23.58-3.34,35.45,7,36.17,29.31,59.31,63.5,70.94,24.23,8.24,47.89,6.36,69.44-8.73,4.41-3.09,8.17-7.08,13-11.37a70.1,70.1,0,0,1-21,27.71c-14.19,11.48-30.85,15.67-48.72,16.39-43.56,1.77-81.28-32.22-89.44-68.59C64.44,57.86,70.42,33.66,86,18.48Z"/><path class="cls-1" d="M134.78,5.43C128.79,32,139,52.1,161.34,65.49c18.71,11.23,38.73,13.69,57.87.21C217,74.38,201.68,84.73,188.6,86c-26.17,2.56-49.14-10.2-59.91-33.3C121,36.16,123.5,16.6,134.78,5.43Z"/></g></g></svg>